<mxfile host="Electron" modified="2023-09-22T22:51:53.178Z" agent="Mozilla/5.0 (Windows NT 10.0; Win64; x64) AppleWebKit/537.36 (KHTML, like Gecko) draw.io/21.7.5 Chrome/114.0.5735.289 Electron/25.8.1 Safari/537.36" etag="rFiGqtA162sfFbEfAdQA" version="21.7.5" type="device">
  <diagram name="Page-1" id="zeambHMkPA4G4bChem_G">
    <mxGraphModel dx="1486" dy="376" grid="1" gridSize="10" guides="1" tooltips="1" connect="1" arrows="1" fold="1" page="1" pageScale="1" pageWidth="850" pageHeight="1100" math="1" shadow="0">
      <root>
        <mxCell id="0" />
        <mxCell id="1" parent="0" />
        <mxCell id="DcNbhtI1WggHSSJpYItG-2" value="" style="endArrow=classic;html=1;rounded=0;fillColor=#0050ef;strokeColor=#001DBC;" parent="1" edge="1">
          <mxGeometry width="50" height="50" relative="1" as="geometry">
            <mxPoint x="110" y="360" as="sourcePoint" />
            <mxPoint x="30" y="440" as="targetPoint" />
          </mxGeometry>
        </mxCell>
        <mxCell id="DcNbhtI1WggHSSJpYItG-3" value="" style="endArrow=classic;html=1;rounded=0;fillColor=#0050ef;strokeColor=#001DBC;" parent="1" edge="1">
          <mxGeometry width="50" height="50" relative="1" as="geometry">
            <mxPoint x="110" y="360" as="sourcePoint" />
            <mxPoint x="230" y="360" as="targetPoint" />
          </mxGeometry>
        </mxCell>
        <mxCell id="DcNbhtI1WggHSSJpYItG-4" value="" style="endArrow=classic;html=1;rounded=0;fillColor=#e51400;strokeColor=#ff0000;" parent="1" edge="1">
          <mxGeometry width="50" height="50" relative="1" as="geometry">
            <mxPoint x="162" y="410" as="sourcePoint" />
            <mxPoint x="262" y="230" as="targetPoint" />
          </mxGeometry>
        </mxCell>
        <mxCell id="DcNbhtI1WggHSSJpYItG-21" value="" style="curved=1;endArrow=classic;html=1;rounded=0;strokeColor=#ff0000;" parent="1" edge="1">
          <mxGeometry width="50" height="50" relative="1" as="geometry">
            <mxPoint x="240" y="250" as="sourcePoint" />
            <mxPoint x="260" y="250" as="targetPoint" />
            <Array as="points">
              <mxPoint x="210" y="250" />
              <mxPoint x="240" y="270" />
              <mxPoint x="290" y="270" />
            </Array>
          </mxGeometry>
        </mxCell>
        <mxCell id="DcNbhtI1WggHSSJpYItG-24" value="\(\hat{Z}_{A}\)" style="text;html=1;strokeColor=none;fillColor=none;align=center;verticalAlign=middle;whiteSpace=wrap;rounded=0;fontColor=#001dbc;" parent="1" vertex="1">
          <mxGeometry x="100" y="200" width="60" height="30" as="geometry" />
        </mxCell>
        <mxCell id="DcNbhtI1WggHSSJpYItG-25" value="\(\theta\)" style="text;html=1;align=center;verticalAlign=middle;resizable=0;points=[];autosize=1;strokeColor=none;fillColor=none;fontColor=#ff0000;" parent="1" vertex="1">
          <mxGeometry x="210" y="270" width="70" height="30" as="geometry" />
        </mxCell>
        <mxCell id="DcNbhtI1WggHSSJpYItG-27" value="" style="endArrow=classic;html=1;rounded=0;fillColor=#0050ef;strokeColor=#001DBC;" parent="1" edge="1">
          <mxGeometry width="50" height="50" relative="1" as="geometry">
            <mxPoint x="110" y="360" as="sourcePoint" />
            <mxPoint x="110" y="200" as="targetPoint" />
          </mxGeometry>
        </mxCell>
        <mxCell id="DcNbhtI1WggHSSJpYItG-28" value="\(\hat{Z}_{B}&#39;\)" style="text;html=1;strokeColor=none;fillColor=none;align=center;verticalAlign=middle;whiteSpace=wrap;rounded=0;" parent="1" vertex="1">
          <mxGeometry x="70" y="150" width="60" height="30" as="geometry" />
        </mxCell>
        <mxCell id="DcNbhtI1WggHSSJpYItG-31" value="\(\hat{X}_{A}\)" style="text;html=1;strokeColor=none;fillColor=none;align=center;verticalAlign=middle;whiteSpace=wrap;rounded=0;fontColor=#001dbc;" parent="1" vertex="1">
          <mxGeometry x="-10" y="440" width="60" height="30" as="geometry" />
        </mxCell>
        <mxCell id="DcNbhtI1WggHSSJpYItG-32" value="\(\hat{Y}_{A}\)" style="text;html=1;strokeColor=none;fillColor=none;align=center;verticalAlign=middle;whiteSpace=wrap;rounded=0;fontColor=#001dbc;" parent="1" vertex="1">
          <mxGeometry x="220" y="350" width="60" height="30" as="geometry" />
        </mxCell>
        <mxCell id="DcNbhtI1WggHSSJpYItG-33" value="\(\hat{Y}_{B}&#39;\)" style="text;html=1;strokeColor=none;fillColor=none;align=center;verticalAlign=middle;whiteSpace=wrap;rounded=0;" parent="1" vertex="1">
          <mxGeometry x="170" y="370" width="60" height="30" as="geometry" />
        </mxCell>
        <mxCell id="DcNbhtI1WggHSSJpYItG-34" value="\(\hat{X}_{B}&#39;\)" style="text;html=1;strokeColor=none;fillColor=none;align=center;verticalAlign=middle;whiteSpace=wrap;rounded=0;" parent="1" vertex="1">
          <mxGeometry x="-50" y="390" width="60" height="30" as="geometry" />
        </mxCell>
        <mxCell id="mxX1FRHHf3KzZ5TYv4Jr-11" value="" style="endArrow=classic;html=1;rounded=0;" edge="1" parent="1">
          <mxGeometry width="50" height="50" relative="1" as="geometry">
            <mxPoint x="80" y="345" as="sourcePoint" />
            <mxPoint x="-10" y="400" as="targetPoint" />
          </mxGeometry>
        </mxCell>
        <mxCell id="mxX1FRHHf3KzZ5TYv4Jr-12" value="" style="endArrow=classic;html=1;rounded=0;" edge="1" parent="1">
          <mxGeometry width="50" height="50" relative="1" as="geometry">
            <mxPoint x="80" y="345" as="sourcePoint" />
            <mxPoint x="200" y="370" as="targetPoint" />
          </mxGeometry>
        </mxCell>
        <mxCell id="mxX1FRHHf3KzZ5TYv4Jr-13" value="" style="endArrow=classic;html=1;rounded=0;" edge="1" parent="1">
          <mxGeometry width="50" height="50" relative="1" as="geometry">
            <mxPoint x="80" y="345" as="sourcePoint" />
            <mxPoint x="100" y="185" as="targetPoint" />
          </mxGeometry>
        </mxCell>
        <mxCell id="mxX1FRHHf3KzZ5TYv4Jr-14" value="\(\hat{K}\)" style="text;html=1;align=center;verticalAlign=middle;resizable=0;points=[];autosize=1;strokeColor=none;fillColor=none;fontColor=#ff0000;" vertex="1" parent="1">
          <mxGeometry x="235" y="210" width="70" height="30" as="geometry" />
        </mxCell>
      </root>
    </mxGraphModel>
  </diagram>
</mxfile>
